<svg
 xmlns="http://www.w3.org/2000/svg"
 xmlns:xlink="http://www.w3.org/1999/xlink"
 width="10px" height="10px">
<path fill-rule="evenodd"  fill="rgb(119, 143, 169)"
 d="M9.000,6.000 L6.000,6.000 L6.000,9.000 C6.000,9.552 5.552,10.000 5.000,10.000 C4.448,10.000 4.000,9.552 4.000,9.000 L4.000,6.000 L1.000,6.000 C0.448,6.000 -0.000,5.552 -0.000,5.000 C-0.000,4.448 0.448,4.000 1.000,4.000 L4.000,4.000 L4.000,1.000 C4.000,0.448 4.448,-0.000 5.000,-0.000 C5.552,-0.000 6.000,0.448 6.000,1.000 L6.000,4.000 L9.000,4.000 C9.552,4.000 10.000,4.448 10.000,5.000 C10.000,5.552 9.552,6.000 9.000,6.000 Z"/>
</svg>